<?xml version="1.0" encoding="utf-8"?>
<!-- Generator: Adobe Illustrator 23.0.4, SVG Export Plug-In . SVG Version: 6.00 Build 0)  -->
<svg version="1.1" id="Layer_1" xmlns="http://www.w3.org/2000/svg" xmlns:xlink="http://www.w3.org/1999/xlink" x="0px" y="0px"
	 viewBox="0 0 1366 1366" style="enable-background:new 0 0 1366 1366;" xml:space="preserve">
<style type="text/css">
	.st0{fill:#BBBDBF;}
</style>
<path class="st0" d="M912.3,573.44l16.52,41.27c33.53-6.51,67.72-10.71,102.76-10.71c137.47,0,270.83,42.33,318.4,59.17
	c-0.44-14.98-1.23-29.87-2.65-44.59c-39.34-14.14-177.47-59.92-315.75-59.92C991.1,558.66,951.36,564.61,912.3,573.44z"/>
<path class="st0" d="M902.28,548.39c41.98-9.71,84.98-16.26,129.3-16.26c132.07,0,260.13,39.02,312.21,57.01
	C1298.4,267.1,1023.17,18.99,689.31,16.09l59.54,148.86L902.28,548.39z"/>
<path class="st0" d="M778.54,655.73c8.52-2.68,17.09-5.36,25.69-8.05l-14.83-39.42c-0.95,0.3-1.93,0.61-2.87,0.91
	c-75.48,23.77-146.78,46.24-217.98,46.24c-16.35,0-32.68-1.18-48.94-2.99l-13.05,34.86l-2.99,8.2c21.71,3.22,43.41,5.29,64.99,5.29
	C635.67,700.76,705.06,678.88,778.54,655.73z"/>
<path class="st0" d="M778.54,583.86c0.49-0.16,1-0.33,1.5-0.49L662.46,270.7L529.21,626.7c13.14,1.29,26.26,2.18,39.33,2.18
	C635.67,628.88,705.06,607,778.54,583.86z"/>
<path class="st0" d="M965.85,707.26l99.93,249.77c11.99,32.85,28.06,57.05,48.14,72.53c20.09,15.52,47.95,25.37,83.54,29.51v47.01
	H812.85v-45.61h17.33c30.45,0,53.42-4.86,68.91-14.58c15.49-9.72,23.23-24.3,23.23-43.73c0-8.78-0.82-17.79-2.44-27.05
	c-1.62-9.27-4.05-18.53-7.25-27.8l-71.37-193.69l-5.33-15.97c-16.59,4.99-33.06,10.14-49.41,15.29
	c-75.48,23.78-146.78,46.24-217.98,46.24c-33.26,0-66.37-4.34-99.22-10.85l-49.4,131.89c-3.69,9.72-6.71,20.73-9.01,32.98
	c-2.33,12.28-3.46,22.1-3.46,29.48c0,19.92,9.91,36.58,29.8,49.99c19.86,13.41,50.57,24.3,92.17,32.62v40.79H169.08v-47.01
	c31.43-1.85,59.09-11.57,83.12-29.16c24.04-17.56,42.05-41.4,54.07-71.5l77.55-191.12c-13.55-3.82-27.04-7.72-40.46-11.64
	c-66.88-19.56-130.05-38.05-188.1-38.05c-55.14,0-113.35,32.53-133.96,45.21c39.48,330.72,320.77,587.2,662.12,587.2
	c341.73,0,623.26-257.03,662.26-588.27c-41.44-14.77-177.72-59.33-314.13-59.33C1009.44,702.42,987.54,704.25,965.85,707.26z"/>
<path class="st0" d="M1031.57,630.52c-31.34,0-62.25,3.56-92.74,9.25l16.91,42.25c24.88-3.76,50.11-6.15,75.83-6.15
	c135.82,0,267.69,41.36,316.72,58.57c1.09-14.2,1.77-28.51,1.96-42.94C1315.31,678.78,1173.48,630.52,1031.57,630.52z"/>
<path class="st0" d="M813.58,672.56c-9.06,2.82-18.08,5.65-27.06,8.49c-75.48,23.78-146.78,46.25-217.98,46.25
	c-24.86,0-49.63-2.52-74.28-6.4l-11.95,32.72l-3.58,9.53c29.98,5.75,60,9.51,89.81,9.51c67.12,0,136.51-21.89,210-45.03
	c16.19-5.11,32.55-10.19,48.97-15.15l-8.41-25.2L813.58,672.56z"/>
<path class="st0" d="M350.82,730.2c14.26,4.17,28.63,8.32,43.05,12.37l16.22-39.98c-22.43-5.92-44.7-12.37-66.72-18.82
	c-66.88-19.56-130.05-38.03-188.1-38.03c-60.22,0-124.06,38.75-138.6,48.11c0.22,13.36,0.84,26.6,1.84,39.74
	c28.33-16.19,82.62-42.51,136.76-42.51C217.11,691.08,282.07,710.08,350.82,730.2z"/>
<path class="st0" d="M350.82,658.31c22.89,6.71,46.06,13.4,69.34,19.5l16.39-40.41c-31.4-7.53-62.51-16.54-93.18-25.51
	c-66.88-19.55-130.05-38.03-188.1-38.03c-57.07,0-117.3,34.76-135.84,46.37c-1.3,14.02-2.09,28.17-2.52,42.41
	c27.86-16.12,83.17-43.43,138.36-43.43C217.11,619.21,282.07,638.19,350.82,658.31z"/>
<path class="st0" d="M350.82,586.42c31.57,9.24,63.62,18.5,95.84,26.08L688.69,16.07c-1.76-0.01-3.48-0.13-5.25-0.13
	c-335.83,0-613.58,248.22-660.08,571.16c29.41-16.27,80.73-39.78,131.91-39.78C217.11,547.32,282.07,566.32,350.82,586.42z"/>
</svg>
